<svg t="1701228175873" class="icon" viewBox="0 0 1024 1024" version="1.1" xmlns="http://www.w3.org/2000/svg" p-id="4650" width="200" height="200"><path d="M512 972.8a460.8 460.8 0 1 0 0-921.6 460.8 460.8 0 0 0 0 921.6z m0-51.2a409.6 409.6 0 1 1 0-819.2 409.6 409.6 0 0 1 0 819.2z" p-id="4651" fill="#515151"></path><path d="M512 307.2c14.1312 0 25.6 13.056 25.6 29.184v162.2016h162.7136c16.128 0 29.184 11.4688 29.184 25.6 0 14.1824-13.056 25.6-29.184 25.6h-162.7648l0.0512 163.4304c0 16.128-11.4688 29.184-25.6 29.184s-25.6-13.056-25.6-29.184v-163.4304H323.6352c-16.128 0-29.184-11.4176-29.184-25.6 0-14.1312 13.056-25.6 29.184-25.6H486.4L486.4 336.384c0-16.128 11.4688-29.184 25.6-29.184z" p-id="4652" fill="#515151"></path></svg>