<svg t="1700444797338" class="icon" viewBox="0 0 1024 1024" version="1.1" xmlns="http://www.w3.org/2000/svg" p-id="4782" width="200" height="200"><path d="M186.16519523 837.83480477a460.8 460.8 0 1 0 651.66960954-651.66960954 460.8 460.8 0 0 0-651.66960954 651.66960954z m36.2038672-36.2038672a409.6 409.6 0 1 1 579.26187514-579.26187514 409.6 409.6 0 0 1-579.26187514 579.26187514z" p-id="4783"></path><path d="M656.81546879 367.18453121c9.99226735 9.99226735 8.86994746 27.33391973-2.53427071 38.7381379l-114.69385128 114.69385128 115.05588996 115.05588995c11.40421817 11.40421817 12.52653805 28.74587055 2.5342707 38.7381379-10.02847121 10.02847121-27.33391973 8.86994746-38.7381379-2.5342707l-115.09209382-115.09209382-115.52654022 115.59894796c-11.40421817 11.40421817-28.74587055 12.52653805-38.73813791 2.53427071s-8.86994746-27.33391973 2.53427071-38.73813791l115.56274409-115.56274409L352.08751859 405.52442657c-11.40421817-11.40421817-12.56274192-28.70966669-2.5342707-38.7381379 9.99226735-9.99226735 27.33391973-8.86994746 38.7381379 2.53427071L503.38347961 484.4126532 618.07733089 369.71880192c11.40421817-11.40421817 28.74587055-12.52653805 38.7381379-2.53427071z" p-id="4784"></path></svg>